<?xml version="1.0" standalone="no"?>
<!DOCTYPE svg PUBLIC "-//W3C//DTD SVG 20010904//EN"
 "http://www.w3.org/TR/2001/REC-SVG-20010904/DTD/svg10.dtd">
<svg version="1.0" xmlns="http://www.w3.org/2000/svg"
 width="361.000000pt" height="362.000000pt" viewBox="0 0 361.000000 362.000000"
 preserveAspectRatio="xMidYMid meet">

<g transform="translate(0.000000,362.000000) scale(0.100000,-0.100000)"
fill="#000000" stroke="none">
<path d="M1095 3489 c-247 -15 -420 -65 -572 -166 -85 -57 -196 -165 -252
-246 -85 -125 -140 -294 -162 -502 -17 -169 -17 -1461 1 -1600 15 -122 50
-268 85 -354 90 -220 302 -411 545 -489 184 -60 457 -76 1200 -69 335 3 617
10 675 16 280 33 459 109 617 265 165 163 254 367 277 633 14 156 14 1443 0
1593 -24 271 -100 458 -249 614 -196 206 -384 281 -765 306 -175 11 -1210 11
-1400 -1z m1538 -313 c184 -31 284 -76 380 -173 69 -70 100 -114 139 -201 61
-135 61 -128 65 -927 5 -801 0 -933 -42 -1054 -70 -207 -204 -341 -405 -405
-136 -43 -286 -51 -990 -51 -703 0 -803 6 -957 59 -192 65 -331 221 -396 445
-22 76 -22 79 -22 906 l0 830 23 85 c43 155 115 267 233 363 100 80 251 123
484 137 77 4 421 7 765 5 525 -2 641 -5 723 -19z"/>
<path d="M2642 2879 c-110 -55 -140 -222 -57 -309 35 -36 105 -70 145 -70 97
0 199 103 200 200 0 56 -42 135 -89 165 -56 38 -140 43 -199 14z"/>
<path d="M1636 2644 c-345 -77 -622 -354 -687 -685 -20 -102 -15 -299 10 -394
24 -89 83 -220 133 -293 98 -143 254 -257 449 -330 71 -26 81 -27 269 -27
l195 0 86 33 c141 54 233 114 339 221 123 125 179 220 226 387 25 88 31 329
10 418 -75 320 -323 574 -644 657 -106 27 -294 34 -386 13z m337 -311 c192
-57 342 -215 393 -414 12 -47 15 -93 12 -174 -4 -96 -9 -120 -37 -185 -57
-134 -152 -233 -286 -298 -85 -41 -156 -57 -260 -56 -157 1 -271 50 -387 167
-98 98 -143 185 -165 315 -14 83 -14 101 0 184 22 129 70 223 161 314 79 79
175 134 266 153 30 6 64 13 75 15 35 8 174 -5 228 -21z"/>
</g>
</svg>
