<?xml version="1.0" standalone="no"?>
<!DOCTYPE svg PUBLIC "-//W3C//DTD SVG 20010904//EN"
 "http://www.w3.org/TR/2001/REC-SVG-20010904/DTD/svg10.dtd">
<svg version="1.0" xmlns="http://www.w3.org/2000/svg"
 width="1200.000000pt" height="262.000000pt" viewBox="0 0 1200.000000 262.000000"
 preserveAspectRatio="xMidYMid meet">

<g transform="translate(0.000000,262.000000) scale(0.100000,-0.100000)"
fill="#000000" stroke="none">
<path d="M1255 2612 c-3 -3 -5 -549 -5 -1214 l0 -1208 23 -10 c12 -5 130 -44
262 -86 131 -42 245 -78 252 -81 11 -4 13 190 13 1036 0 936 2 1045 16 1081 9
22 25 45 35 50 47 26 114 -5 145 -66 18 -36 19 -69 22 -496 l3 -456 47 -20
c68 -29 164 -46 227 -39 234 24 358 258 325 614 -21 229 -61 325 -189 454 -77
76 -99 92 -211 147 -145 71 -283 120 -575 202 -229 65 -381 101 -390 92z"/>
<path d="M4230 2015 l0 -84 883 -3 c870 -3 883 -3 927 -24 25 -11 60 -35 78
-53 54 -55 67 -87 67 -176 0 -69 -4 -86 -27 -126 -27 -45 -75 -86 -133 -111
-23 -10 -189 -14 -750 -18 -671 -5 -723 -6 -770 -24 -125 -46 -218 -142 -255
-264 -18 -57 -20 -93 -20 -333 l0 -269 160 0 160 0 0 243 c0 187 3 255 15 294
18 60 80 135 139 166 41 22 42 22 766 27 722 5 725 5 777 27 77 33 122 64 171
117 54 58 82 122 90 206 27 256 -91 424 -335 475 -57 12 -226 15 -1005 15
l-938 0 0 -85z"/>
<path d="M7835 2090 c-145 -30 -259 -110 -315 -220 -44 -86 -50 -150 -50 -567
0 -370 -1 -395 -20 -447 -25 -65 -90 -129 -146 -145 -25 -7 -194 -11 -466 -11
l-428 0 0 -85 0 -85 503 0 c545 0 561 1 669 56 69 35 148 116 184 189 l29 60
5 450 c5 409 7 454 24 493 25 57 103 126 160 141 30 7 188 11 471 11 l426 0
-3 83 -3 82 -500 1 c-275 1 -518 -2 -540 -6z"/>
<path d="M9220 1768 c0 -367 2 -380 66 -440 70 -66 30 -62 884 -68 875 -6 825
-1 919 -86 61 -55 83 -108 83 -195 0 -114 -49 -195 -147 -247 l-50 -27 -877
-3 -878 -2 0 -85 0 -85 940 0 c647 0 955 3 992 11 139 29 247 109 305 227 l38
76 0 130 c0 123 -2 135 -29 194 -35 75 -119 158 -200 196 -117 56 -120 56
-906 56 -700 0 -726 1 -757 20 -56 33 -58 45 -58 275 l0 210 948 3 947 2 0 85
0 85 -1110 0 -1110 0 0 -332z"/>
<path d="M865 1044 c-143 -51 -336 -121 -430 -155 -345 -124 -450 -198 -431
-304 9 -46 61 -104 123 -137 60 -33 219 -82 349 -109 127 -26 412 -36 539 -20
150 20 135 2 135 162 0 76 -3 139 -7 139 -5 0 -77 -25 -161 -55 -179 -65 -280
-83 -374 -66 -70 12 -111 35 -106 59 6 30 64 58 285 137 120 43 250 90 288
105 l70 26 3 157 c2 122 0 157 -10 156 -7 0 -130 -43 -273 -95z"/>
<path d="M2258 984 c-100 -15 -272 -57 -323 -78 l-35 -15 0 -160 c0 -89 2
-161 5 -161 2 0 145 50 317 110 351 124 442 144 550 121 97 -21 122 -58 65
-96 -14 -9 -229 -89 -478 -178 l-454 -163 -3 -157 c-1 -86 0 -157 4 -157 7 0
29 8 694 248 289 104 548 201 575 215 155 79 209 167 156 254 -54 87 -282 177
-556 218 -124 18 -397 18 -517 -1z"/>
<path d="M11680 700 c0 -5 11 -10 25 -10 25 0 25 -1 25 -80 0 -103 18 -105 22
-2 3 76 3 77 31 80 53 6 26 22 -38 22 -37 0 -65 -4 -65 -10z"/>
<path d="M11830 620 c0 -105 18 -123 22 -22 l3 67 25 -68 c14 -37 29 -66 35
-64 5 2 19 29 30 60 29 79 35 80 35 4 0 -38 4 -67 10 -67 6 0 10 37 10 90 0
79 -2 90 -18 90 -12 0 -24 -18 -41 -65 -12 -36 -26 -63 -30 -61 -4 3 -16 32
-26 66 -14 45 -23 60 -37 60 -16 0 -18 -9 -18 -90z"/>
<path d="M3095 266 c-16 -7 -41 -26 -55 -41 -21 -22 -25 -37 -25 -87 0 -56 2
-62 37 -93 67 -62 155 -52 205 24 71 106 -48 250 -162 197z m126 -42 c30 -27
42 -78 29 -119 -16 -48 -53 -75 -104 -75 -48 0 -80 19 -101 60 -21 40 -19 72
8 111 38 57 118 68 168 23z"/>
<path d="M3090 145 c0 -43 4 -75 10 -75 6 0 10 14 10 31 0 28 2 30 33 27 27
-2 33 -8 35 -30 2 -16 9 -28 18 -28 15 0 17 23 5 55 -5 12 -4 25 2 33 7 9 6
20 -1 37 -10 22 -18 25 -62 25 l-50 0 0 -75z m85 30 c0 -15 -8 -21 -32 -23
-27 -3 -33 0 -33 16 0 26 10 33 40 30 17 -2 25 -9 25 -23z"/>
</g>
</svg>
